# Blender v2.63 (sub 0) OBJ File: ''
# www.blender.org
mtllib box.mtl
o Cube
v 4.070871 -4.070871 -4.070870
v 4.070871 -4.070871 4.070871
v -4.070871 -4.070871 4.070870
v -4.070869 -4.070871 -4.070872
v 4.070873 4.070871 -4.070868
v 4.070868 4.070871 4.070873
v -4.070872 4.070871 4.070869
v -4.070870 4.070871 -4.070871
vn 0.000000 -1.000000 0.000000
vn 0.000000 1.000000 0.000000
vn 1.000000 0.000000 0.000000
vn -0.000000 -0.000000 1.000000
vn -1.000000 -0.000000 -0.000000
vn 0.000000 0.000000 -1.000000
usemtl Material
s off
f 1//1 2//1 3//1 4//1
f 5//2 8//2 7//2 6//2
f 1//3 5//3 6//3 2//3
f 2//4 6//4 7//4 3//4
f 3//5 7//5 8//5 4//5
f 5//6 1//6 4//6 8//6
