# Blender v2.63 (sub 0) OBJ File: 'laser.blend'
# www.blender.org
mtllib laser.mtl
o Cylinder_Cylinder.001
v -0.068563 0.504333 4.426527
v 0.362315 0.192813 4.426527
v 0.103737 -0.180791 4.426527
v 0.256820 0.386107 -4.139607
v -0.006166 0.501356 -4.139607
v -0.399965 0.124671 -4.139607
v 0.302513 -0.034946 4.426527
v -0.306971 0.377077 -4.139607
v 0.370471 0.138463 -4.139607
v -0.243107 -0.138137 -4.139607
v -0.293106 -0.117139 4.426527
v 0.243488 0.398207 4.426527
v 0.157513 -0.172075 -4.139607
v -0.380892 0.274108 4.426527
vn 0.000000 0.000000 -1.000000
vn -0.975723 -0.218927 0.005992
vn -0.000000 0.000000 1.000000
vn -0.858677 -0.512504 -0.003756
vn 0.824697 -0.565554 -0.004906
vn -0.593340 0.804939 0.004556
vn -0.938332 0.345712 -0.003942
vn 0.908858 0.417102 -0.001781
vn 0.321978 0.946745 0.002016
vn -0.381846 0.924221 -0.003103
vn -0.084411 -0.996429 0.001950
vn -0.158371 -0.987378 -0.001999
vn 0.401383 0.915910 -0.000669
vn 0.967211 -0.253960 0.002532
vn 0.865582 0.500767 0.000640
vn 0.591564 -0.806253 0.002893
usemtl 
s off
f 5//1 4//1 13//1
f 14//2 6//2 11//2
f 8//1 10//1 6//1
f 3//3 1//3 11//3
f 11//4 6//4 10//4
f 12//3 1//3 3//3
f 7//5 13//5 9//5
f 7//3 2//3 12//3
f 1//6 8//6 14//6
f 14//7 8//7 6//7
f 2//8 9//8 4//8
f 5//9 1//9 12//9
f 3//3 7//3 12//3
f 1//10 5//10 8//10
f 11//11 10//11 13//11
f 11//12 13//12 3//12
f 5//1 13//1 10//1
f 8//1 5//1 10//1
f 4//1 9//1 13//1
f 12//13 4//13 5//13
f 7//14 9//14 2//14
f 2//15 4//15 12//15
f 11//3 1//3 14//3
f 3//16 13//16 7//16
